<svg width="40" height="40" viewBox="0 0 40 40" fill="none" xmlns="http://www.w3.org/2000/svg">
<g id="shopping_cart_24px">
<path id="icon/action/shopping_cart_24px" fill-rule="evenodd" clip-rule="evenodd" d="M3.32716 5.00004C3.32716 5.91671 4.07716 6.66671 4.99383 6.66671H6.6605L12.6605 19.3167L10.4105 23.3834C9.19383 25.6167 10.7938 28.3334 13.3272 28.3334H31.6605C32.5772 28.3334 33.3272 27.5834 33.3272 26.6667C33.3272 25.75 32.5772 25 31.6605 25H13.3272L15.1605 21.6667H27.5772C28.8272 21.6667 29.9272 20.9834 30.4938 19.95L36.4605 9.13337C37.0772 8.03337 36.2772 6.66671 35.0105 6.66671H10.3438L9.22716 4.28337C8.9605 3.70004 8.3605 3.33337 7.72716 3.33337H4.99383C4.07716 3.33337 3.32716 4.08337 3.32716 5.00004ZM13.3272 30C11.4938 30 10.0105 31.5 10.0105 33.3334C10.0105 35.1667 11.4938 36.6667 13.3272 36.6667C15.1605 36.6667 16.6605 35.1667 16.6605 33.3334C16.6605 31.5 15.1605 30 13.3272 30ZM26.6772 33.3334C26.6772 31.5 28.1605 30 29.9938 30C31.8271 30 33.3271 31.5 33.3271 33.3334C33.3271 35.1667 31.8271 36.6667 29.9938 36.6667C28.1605 36.6667 26.6772 35.1667 26.6772 33.3334Z" fill="black" fill-opacity="0.54"/>
</g>
</svg>
