<svg width="45" height="45" viewBox="0 0 45 45" fill="none" xmlns="http://www.w3.org/2000/svg">
<g id="devices_24px">
<path id="icon/device/devices_24px" fill-rule="evenodd" clip-rule="evenodd" d="M7.5 13.125C7.5 12.0937 8.34375 11.25 9.375 11.25H39.375C40.4063 11.25 41.25 10.4062 41.25 9.375C41.25 8.34375 40.4063 7.5 39.375 7.5H7.5C5.4375 7.5 3.75 9.1875 3.75 11.25V31.875H2.8125C1.25625 31.875 0 33.1312 0 34.6875C0 36.2437 1.25625 37.5 2.8125 37.5H26.25V31.875H7.5V13.125ZM43.125 15H31.875C30.8438 15 30 15.8437 30 16.875V35.625C30 36.6562 30.8438 37.5 31.875 37.5H43.125C44.1562 37.5 45 36.6562 45 35.625V16.875C45 15.8437 44.1562 15 43.125 15ZM33.75 31.875H41.25V18.75H33.75V31.875Z" fill="black" fill-opacity="0.54"/>
</g>
</svg>
