<svg width="40" height="40" viewBox="0 0 40 40" fill="none" xmlns="http://www.w3.org/2000/svg">
<g id="phonelink_ring_24px">
<path id="icon/communication/phonelink_ring_24px" fill-rule="evenodd" clip-rule="evenodd" d="M6.69063 1.66663H23.3573C25.1906 1.66663 26.6906 3.16663 26.6906 4.99996V35C26.6906 36.8333 25.1906 38.3333 23.3573 38.3333H6.69063C4.8573 38.3333 3.3573 36.8333 3.3573 35V4.99996C3.3573 3.16663 4.8573 1.66663 6.69063 1.66663ZM6.69063 33.3333H23.3573V6.66663H6.69063V33.3333ZM34.4073 13.7666C33.974 13.2333 33.174 13.1666 32.674 13.6666L32.624 13.7166C32.2073 14.1333 32.1906 14.7999 32.5406 15.2666C34.6406 17.9999 34.624 21.7166 32.5073 24.5499C32.1573 25.0166 32.1906 25.6666 32.5906 26.0833L32.674 26.1666C33.1573 26.6499 33.9406 26.5999 34.3906 26.0833C37.3906 22.5333 37.3906 17.4333 34.4073 13.7666ZM28.9573 17.3833L29.0573 17.2833C29.3155 17.0221 29.6833 16.9007 30.0463 16.9568C30.4092 17.0129 30.7232 17.2397 30.8906 17.5666C31.7239 19.0999 31.7239 20.8499 30.9073 22.3333C30.5406 22.9999 29.6239 23.1166 29.0906 22.5833L28.9573 22.4499C28.6239 22.1166 28.5239 21.6166 28.7073 21.1833C29.0573 20.3666 29.0573 19.4666 28.7073 18.6499C28.5239 18.2166 28.6239 17.7166 28.9573 17.3833Z" fill="#7879F1"/>
</g>
</svg>
