<svg width="40" height="40" viewBox="0 0 40 40" fill="none" xmlns="http://www.w3.org/2000/svg">
<g id="signal_cellular_alt_24px">
<path id="icon/device/signal_cellular_alt_24px" fill-rule="evenodd" clip-rule="evenodd" d="M22.5 13C23.8833 13 25 14.1167 25 15.5V37.1667C25 38.55 23.8833 39.6667 22.5 39.6667C21.1167 39.6667 20 38.55 20 37.1667V15.5C20 14.1167 21.1167 13 22.5 13ZM2.5 29.6667C3.88333 29.6667 5 30.7833 5 32.1667V37.1667C5 38.55 3.88333 39.6667 2.5 39.6667C1.11667 39.6667 0 38.55 0 37.1667V32.1667C0 30.7833 1.11667 29.6667 2.5 29.6667ZM15 23.8333C15 22.45 13.8833 21.3333 12.5 21.3333C11.1167 21.3333 10 22.45 10 23.8333V37.1667C10 38.55 11.1167 39.6667 12.5 39.6667C13.8833 39.6667 15 38.55 15 37.1667V23.8333Z" fill="#EF5DA8"/>
</g>
</svg>
